<?xml version="1.0" encoding="UTF-8"?>
<svg id="Layer_1" xmlns="http://www.w3.org/2000/svg" version="1.1" viewBox="0 0 805 600">
  <!-- Generator: Adobe Illustrator 29.3.1, SVG Export Plug-In . SVG Version: 2.1.0 Build 151)  -->
  <defs>
    <style>
      .st0 {
        fill: none;
        stroke-width: 4px;
      }

      .st0, .st1, .st2 {
        stroke: #fff;
      }

      .st3 {
        fill: #fff;
        font-family: Georgia, Georgia;
        font-size: 16px;
        isolation: isolate;
      }

      .st1 {
        fill: #e52727;
      }

      .st1, .st2 {
        stroke-width: 2px;
      }

      .st2 {
        fill: #23171b;
      }
    </style>
  </defs>
  <g id="cells">
    <path id="Fifty_Shades_of_Grey" class="st1" d="M378.7,334.6l-1.1,5.5-2.2,13.1,18.4,88.5,136.3,62,9.3-1.7,102.3-117.6.4-3.3.4-3.8-23.7-80.7-51.9-45.2-48.2-16.2-87.6,23.4-31.7,27.9-20.7,48.2Z"/>
    <path id="Old_Fashioned" class="st1" d="M142.3,330.3l27.4-16-15.6-17.1-9,2.3-2.7,30.8Z"/>
    <path id="The_Last_Five_Years" class="st1" d="M458.8,104.4l5.4-9-6.3-2.9.9,11.9Z"/>
    <path id="Boy_Meets_Girl" class="st1" d="M140.1,355.6l-.5,5.5,4.4,1-3.9-6.5Z"/>
    <path id="_x33__Nights_in_the_Desert" class="st1" d="M163.1,120.8h-2.4s-.9,10.3-.9,10.3l5.5-.3-2.2-10.1Z"/>
    <path id="How_to_Be_Single" class="st2" d="M458.8,104.4l-6.8,29.1,72.9,75.1,57.6-15.7,24.2-20.1,2-4.7-67.7-112.6-77,40-5.4,9Z"/>
    <path id="The_Choice" class="st1" d="M513.9,10l-89.1,20.6,33.1,61.9,6.3,2.9,77-40-27.3-45.4Z"/>
    <path id="Pride_and_Prejudice_and_Zombies" class="st1" d="M358.9,545.8l7.2-6,4.9-67.2-89.6,40.3,77.5,32.9Z"/>
    <path id="Touched_with_Fire" class="st1" d="M377.6,340.1l-8.1,5.6,6,7.5,2.2-13.1Z"/>
    <path id="Tumbledown" class="st1" d="M664.5,260.7l-5,8.7,8.6-2.7-3.6-6Z"/>
    <path id="Until_Forever" class="st1" d="M165.2,130.8l-5.5.3-1,12,8.4-7.1-1.9-5.1Z"/>
    <path id="Already_Tomorrow_in_Hong_Kong" class="st1" d="M310.1,61.6l-3.1-3.8-3,.7,4.2,6.5,1.9-3.4Z"/>
    <path id="Providence" class="st1" d="M608.8,168l-2,4.7,4.7-.3-2.7-4.4Z"/>
    <path id="Fifty_Shades_Darker" class="st1" d="M342.5,170.8l-34.1-37-141.3,2.2-8.4,7.1-12.5,142.7,7.8,11.5,15.6,17.1,38.5,25.1,111.6-28,6.7-7,19.6-31.7-3.6-101.8Z"/>
    <path id="Rings" class="st1" d="M342.5,170.8l3.6,101.8,53.4,13.9,31.7-27.9-25.3-88.1-63.4.3Z"/>
    <path id="The_Space_Between_Us" class="st1" d="M567,251.4l15.5-58.6-57.6,15.7-6.2,26.7,48.2,16.2Z"/>
    <path id="Fifty_Shades_Freed" class="st1" d="M208.2,339.4l-12,21.9-2.2,4.8,7.9,112.9,79.6,33.8,89.6-40.3,22.8-30.8-18.4-88.5-6-7.5-6.9-7.6-34.5-23.7-8.3-3-111.6,28Z"/>
    <path id="But_Deliver_Us_from_Evil" class="st2" d="M145,299.5l9-2.3-7.8-11.5-1.2,13.7Z"/>
    <path id="The_Female_Brain" class="st1" d="M369.8,550.4l-3.7-10.6-7.2,6,10.9,4.6Z"/>
    <path id="What_Men_Want" class="st2" d="M313.5,56.3l-3.4,5.3-1.9,3.4.2,68.8,34.1,37,63.4-.3,46.2-37.1,6.8-29.1-.9-11.9-33.1-61.9-111.3,25.7Z"/>
    <path id="Isn_x27_t_It_Romantic" class="st1" d="M366.1,539.8l3.7,10.6,93.3,39.6,67.9-78.1-.8-8.1-136.3-62-22.8,30.8-4.9,67.2Z"/>
    <path id="Happy_Death_Day_2U" class="st1" d="M405.9,170.5l25.3,88.1,87.6-23.4,6.2-26.7-72.9-75.1-46.2,37.1Z"/>
    <path id="Piercing" class="st1" d="M644,382l3.2-3.7-4.6-.9-.4,3.8,1.8.8Z"/>
    <path id="Under_the_Eiffel_Tower" class="st1" d="M644,382l-1.8-.8-.4,3.3,2.2-2.5Z"/>
    <path id="The_Photograph" class="st1" d="M201.8,479.1l-7.9-112.9-1.6-.7-47.1-1.7-6.2,3.4-7.2,82.3,69.9,29.7Z"/>
    <path id="Downhill" class="st1" d="M142.3,330.3l-2.2,25.2,3.9,6.5,1.3,1.7,47.1,1.7,3.8-4,12-21.9-38.5-25.1-27.4,16Z"/>
    <path id="First_Lady" class="st1" d="M378.7,334.6l-16.2,3.5,6.9,7.6,8.1-5.6,1.1-5.5Z"/>
    <path id="Olympic_Dreams" class="st1" d="M139.1,367.1l6.2-3.4-1.3-1.7-4.4-1-.5,6.1Z"/>
    <path id="Little_Fish" class="st1" d="M539.5,502.1l-9.3,1.7.8,8.1,8.5-9.8Z"/>
    <path id="Marry_Me" class="st1" d="M653.2,278.4l6.3-9,5-8.7-53-88.2-4.7.3-24.2,20.1-15.5,58.6,51.9,45.2,34.3-18.2Z"/>
    <path id="Lisa_Frankenstein" class="st2" d="M378.7,334.6l20.7-48.2-53.4-13.9-19.6,31.7,1.6,10.1,34.5,23.7,16.2-3.5Z"/>
    <path id="Scrambled" class="st2" d="M678.4,283.9l-10.4-17.2-8.6,2.7-6.3,9,25.2,5.5Z"/>
    <path id="Inheritance_to_Love" class="st1" d="M307,57.8l3.1,3.8,3.4-5.3-6.5,1.5Z"/>
    <path id="Sex-Positive" class="st2" d="M328,314.4l-1.6-10.1-6.7,7,8.3,3Z"/>
    <path id="Heart_Eyes" class="st2" d="M303.9,58.5l-140.7,32.5-1.4,15.5,1.2,14.4,2.2,10.1,1.9,5.1,141.3-2.2-.2-68.8-4.2-6.5Z"/>
    <path id="Love_Hurts" class="st1" d="M699.2,318.4l-20.8-34.5-25.2-5.5-34.3,18.2,23.7,80.7,4.6.9,52-59.8Z"/>
    <path id="I_Love_You_Forever" class="st2" d="M193.9,366.2l2.2-4.8-3.8,4,1.6.7Z"/>
    <path id="When_I_x27_m_Ready" class="st1" d="M161.9,106.4l-1.3,14.4h2.4s-1.2-14.4-1.2-14.4Z"/>
    <path class="st0" d="M513.9,10L163.2,90.9l-31.4,358.5,331.2,140.6,236.1-271.6L513.9,10Z"/>
  </g>
  <text class="st3" transform="translate(440.6 365.4)"><tspan x="0" y="0">Fifty Shades of Grey</tspan></text>
  <text class="st3" transform="translate(-151.7 299.5)"><tspan x="0" y="0">Old Fashioned</tspan></text>
  <text class="st3" transform="translate(483 -10.3)"><tspan x="0" y="0">The Last Five Years</tspan></text>
  <text class="st3" transform="translate(-143.4 346.7)"><tspan x="0" y="0">Boy Meets Girl</tspan></text>
  <text class="st3" transform="translate(-179.8 150.6)"><tspan x="0" y="0">3 Nights in the Desert</tspan></text>
  <text class="st3" transform="translate(457.9 133)"><tspan x="0" y="0">How to Be Single</tspan></text>
  <text class="st3" transform="translate(445.6 52.7)"><tspan x="0" y="0">The Choice</tspan></text>
  <text class="st3" transform="translate(139.1 625.1)"><tspan x="0" y="0">Pride and Prejudice and Zombies</tspan></text>
  <text class="st3" transform="translate(842.4 421.4)"><tspan x="0" y="0">Touched with Fire</tspan></text>
  <text class="st3" transform="translate(848.6 269.3)"><tspan x="0" y="0">Tumbledown</tspan></text>
  <text class="st3" transform="translate(-126.1 198.9)"><tspan x="0" y="0">Until Forever</tspan></text>
  <text class="st3" transform="translate(222.2 -13.8)"><tspan x="0" y="0">Already Tomorrow in Hong Kong</tspan></text>
  <text class="st3" transform="translate(638.6 -18)"><tspan x="0" y="0">Providence</tspan></text>
  <text class="st3" transform="translate(174.1 239.4)"><tspan x="0" y="0">Fifty Shades Darker</tspan></text>
  <text class="st3" transform="translate(362.5 236.6)"><tspan x="0" y="0">Rings</tspan></text>
  <text class="st3" transform="translate(842.3 217.5)"><tspan x="0" y="0">The Space Between Us</tspan></text>
  <text class="st3" transform="translate(221.9 413.7)"><tspan x="0" y="0">Fifty Shades Freed</tspan></text>
  <text class="st3" transform="translate(-186.6 487)"><tspan x="0" y="0">But Deliver Us from Evil</tspan></text>
  <text class="st3" transform="translate(326.6 642.2)"><tspan x="0" y="0">The Female Brain</tspan></text>
  <text class="st3" transform="translate(323.9 117.5)"><tspan x="0" y="0">What Men Want</tspan></text>
  <text class="st3" transform="translate(383.5 515.9)"><tspan x="0" y="0">Isn&apos;t It Romantic</tspan></text>
  <text class="st3" transform="translate(431.1 186.8)"><tspan x="0" y="0">Happy </tspan><tspan x="0" y="19.2">Death </tspan><tspan x="0" y="38.4">Day 2U</tspan></text>
  <text class="st3" transform="translate(848.7 365.4)"><tspan x="0" y="0">Piercing</tspan></text>
  <text class="st3" transform="translate(842.4 389.9)"><tspan x="0" y="0">Under the Eiffel Tower</tspan></text>
  <text class="st3" transform="translate(145.2 397.5)"><tspan x="0" y="0">The </tspan><tspan x="0" y="19.2">Photo-</tspan><tspan x="0" y="38.4">graph</tspan></text>
  <text class="st3" transform="translate(-144.1 242.9)"><tspan x="0" y="0">Downhill</tspan></text>
  <text class="st3" transform="translate(842.4 326.7)"><tspan x="0" y="0">First Lady</tspan></text>
  <text class="st3" transform="translate(-167.2 367.1)"><tspan x="0" y="0">Olympic Dreams</tspan></text>
  <text class="st3" transform="translate(558.4 642)"><tspan x="0" y="0">Little Fish</tspan></text>
  <text class="st3" transform="translate(574.3 246.8)"><tspan x="0" y="0">Marry Me</tspan></text>
  <text class="st3" transform="translate(336.5 299.2)"><tspan x="0" y="0">Lisa </tspan><tspan x="0" y="19.2">Frankenstein</tspan></text>
  <text class="st3" transform="translate(849.4 304.4)"><tspan x="0" y="0">Scrambled</tspan></text>
  <text class="st3" transform="translate(273.3 -41.7)"><tspan x="0" y="0">Inheritance to Love</tspan></text>
  <text class="st3" transform="translate(-125.6 526.9)"><tspan x="0" y="0">Sex-Positive</tspan></text>
  <text class="st3" transform="translate(201.8 109.8)"><tspan x="0" y="0">Heart Eyes</tspan></text>
  <text class="st3" transform="translate(636.4 313.4)"><tspan x="0" y="0">Love </tspan><tspan x="0" y="19.2">Hurts</tspan></text>
  <text class="st3" transform="translate(-193.5 322.3)"><tspan x="0" y="0">I Love You Forever</tspan></text>
  <text class="st3" transform="translate(-174.8 117.5)"><tspan x="0" y="0">When I&apos;m Ready</tspan></text>
</svg>